<?xml version="1.0" encoding="UTF-8"?>
<svg version="1.1" xmlns="http://www.w3.org/2000/svg" width="1080" height="1080">
<path d="M0 0 C0.71027344 0.59683594 1.42054688 1.19367187 2.15234375 1.80859375 C2.83167969 2.35386719 3.51101563 2.89914063 4.2109375 3.4609375 C9.60051185 7.92598448 14.18372012 13.03509075 18.15234375 18.80859375 C18.15234375 19.46859375 18.15234375 20.12859375 18.15234375 20.80859375 C18.81234375 20.80859375 19.47234375 20.80859375 20.15234375 20.80859375 C32.33613755 37.32598184 40.52317093 59.22499777 46.15234375 78.80859375 C46.7939557 80.91405146 47.44006908 83.01814084 48.08984375 85.12109375 C48.42757812 86.22195312 48.7653125 87.3228125 49.11328125 88.45703125 C49.79421445 90.6534248 50.48652975 92.84632922 51.19140625 95.03515625 C53.34938815 101.80561854 55.05387122 108.54920819 56.44140625 115.51953125 C56.93013554 117.78057555 57.50460349 120.0242352 58.1484375 122.24609375 C59.19474654 125.95906592 59.91633597 129.63607533 60.58984375 133.43359375 C61.48458557 138.38777009 62.46593353 143.28887515 63.65234375 148.18359375 C65.09610308 154.23075327 66.12223321 160.31248193 67.0625 166.45458984 C67.60591048 169.91651601 68.2524744 173.15886765 69.21875 176.5390625 C70.0416544 179.42094947 70.40218929 181.77608204 70.52734375 184.74609375 C70.93935504 190.14638461 72.18068336 195.19028288 73.56762695 200.40087891 C74.9235745 205.60590875 75.88823375 210.8079675 76.71484375 216.12109375 C77.6344744 222.00934499 78.78566039 227.67022953 80.48046875 233.39453125 C81.1326845 235.7379576 81.56391004 238.03601017 81.96484375 240.43359375 C83.43932478 248.15004446 86.39406587 255.47714505 89.15234375 262.80859375 C89.53261719 263.82953125 89.91289063 264.85046875 90.3046875 265.90234375 C95.74068088 279.67610633 103.07758815 292.73118224 111.4375 304.92578125 C113.07429448 307.67738564 113.7745467 309.6583476 114.15234375 312.80859375 C114.81234375 312.80859375 115.47234375 312.80859375 116.15234375 312.80859375 C117.4140625 314.64453125 117.4140625 314.64453125 118.83984375 317.18359375 C123.27640238 324.8261327 128.39542298 331.93235646 133.79296875 338.921875 C135.15234375 340.80859375 135.15234375 340.80859375 136.5 343.09375 C138.58879629 346.52569662 140.94604334 349.71001391 143.33984375 352.93359375 C144.32960261 354.27461005 145.31918481 355.61575676 146.30859375 356.95703125 C146.79328125 357.6128418 147.27796875 358.26865234 147.77734375 358.94433594 C149.64312949 361.47401276 151.49278378 364.01522149 153.33984375 366.55859375 C153.96503906 367.41839844 154.59023438 368.27820313 155.234375 369.1640625 C156.60969651 371.06038157 157.98171069 372.959101 159.3515625 374.859375 C160.06957031 375.85324219 160.78757812 376.84710938 161.52734375 377.87109375 C162.17445313 378.76957031 162.8215625 379.66804688 163.48828125 380.59375 C165.10902084 382.85899336 165.10902084 382.85899336 167.15234375 384.80859375 C167.15234375 385.79859375 167.15234375 386.78859375 167.15234375 387.80859375 C168.14234375 388.13859375 169.13234375 388.46859375 170.15234375 388.80859375 C171.89229017 391.02782425 173.50574194 393.23304756 175.08984375 395.55859375 C175.95177365 396.80432152 176.81503521 398.04912904 177.6796875 399.29296875 C178.09331543 399.89173828 178.50694336 400.49050781 178.93310547 401.10742188 C180.04884244 402.66418103 181.2551307 404.15499805 182.46875 405.63671875 C184.15234375 407.80859375 184.15234375 407.80859375 184.15234375 409.80859375 C185.14234375 410.13859375 186.13234375 410.46859375 187.15234375 410.80859375 C188.80491405 412.94548749 190.33383182 415.07268306 191.83984375 417.30859375 C195.47955798 422.59042101 199.28207462 427.41699147 203.75390625 432.0390625 C205.15234375 433.80859375 205.15234375 433.80859375 205.15234375 436.80859375 C205.81234375 436.80859375 206.47234375 436.80859375 207.15234375 436.80859375 C208.44921875 438.24560547 208.44921875 438.24560547 209.90234375 440.23828125 C210.42828125 440.95113281 210.95421875 441.66398437 211.49609375 442.3984375 C212.04265625 443.15253906 212.58921875 443.90664063 213.15234375 444.68359375 C214.2343425 446.16113449 215.31762094 447.63773919 216.40234375 449.11328125 C216.881875 449.77312012 217.36140625 450.43295898 217.85546875 451.11279297 C219.18711488 452.93145284 219.18711488 452.93145284 221.15234375 454.80859375 C221.15234375 455.79859375 221.15234375 456.78859375 221.15234375 457.80859375 C222.14234375 458.13859375 223.13234375 458.46859375 224.15234375 458.80859375 C225.56274414 460.31152344 225.56274414 460.31152344 227 462.23046875 C227.52271484 462.9265625 228.04542969 463.62265625 228.58398438 464.33984375 C229.39125977 465.438125 229.39125977 465.438125 230.21484375 466.55859375 C230.75689453 467.2753125 231.29894531 467.99203125 231.85742188 468.73046875 C234.55643602 472.36029247 236.47279197 475.5976601 238.15234375 479.80859375 C239.14234375 480.13859375 240.13234375 480.46859375 241.15234375 480.80859375 C242.47094727 482.35913086 242.47094727 482.35913086 243.78125 484.3359375 C244.25884766 485.04556641 244.73644531 485.75519531 245.22851562 486.48632812 C245.71900391 487.23205078 246.20949219 487.97777344 246.71484375 488.74609375 C247.69351613 490.21474031 248.6739114 491.68224064 249.65625 493.1484375 C250.08752197 493.80191162 250.51879395 494.45538574 250.96313477 495.12866211 C252.18214352 496.95078463 252.18214352 496.95078463 254.15234375 498.80859375 C254.15234375 499.79859375 254.15234375 500.78859375 254.15234375 501.80859375 C254.81234375 501.80859375 255.47234375 501.80859375 256.15234375 501.80859375 C257.6328125 503.64453125 257.6328125 503.64453125 259.33984375 506.18359375 C260.26796875 507.55064453 260.26796875 507.55064453 261.21484375 508.9453125 C261.85421875 509.89019531 262.49359375 510.83507812 263.15234375 511.80859375 C264.37940204 513.53925721 265.6084903 515.26848363 266.83984375 516.99609375 C269.08010925 520.20002112 271.18064096 523.4111745 273.0625 526.84375 C274.51822377 529.46822691 276.06031271 532.03898221 277.58984375 534.62109375 C288.00312918 552.56739417 296.07086515 573.45642889 298.64916992 594.17089844 C298.99749654 596.6891258 299.41196281 599.19875566 299.87866211 601.69775391 C302.43074106 615.4043875 302.66185329 628.89686755 302.58984375 642.80859375 C302.58813171 643.97780365 302.58641968 645.14701355 302.58465576 646.35165405 C302.54353328 662.69168491 301.85138225 678.33553929 298.61328125 694.38232422 C297.96273521 697.80664973 297.62454184 701.21522948 297.27734375 704.68359375 C294.74083137 725.83629518 289.58248027 747.20051886 283.140625 767.49609375 C282.07258591 771.07592436 281.20095334 774.67361198 280.33984375 778.30859375 C278.54999688 785.81688108 276.15622022 793.0784766 273.61401367 800.36328125 C271.73479688 805.80342265 270.30228205 811.16706474 269.15234375 816.80859375 C269.76722656 815.71160156 270.38210938 814.61460937 271.015625 813.484375 C271.83199292 812.0299264 272.64840131 810.57550052 273.46484375 809.12109375 C273.86896484 808.39986328 274.27308594 807.67863281 274.68945312 806.93554688 C277.44382332 802.03142434 280.23879861 797.19196211 283.33984375 792.49609375 C287.49013297 785.91419336 290.73793408 778.78991774 294.15234375 771.80859375 C294.81234375 771.80859375 295.47234375 771.80859375 296.15234375 771.80859375 C296.26835938 771.07253906 296.384375 770.33648438 296.50390625 769.578125 C297.15682041 766.78947356 298.05650193 764.93412549 299.52734375 762.49609375 C301.53724983 759.01187261 303.07345401 755.62466358 304.41015625 751.83984375 C305.99310961 747.50755034 307.86358457 743.22904236 310.03173828 739.15698242 C313.08624102 733.35312879 315.13584572 727.3510165 317.15234375 721.12109375 C317.50264648 720.0539917 317.85294922 718.98688965 318.21386719 717.88745117 C320.30226861 711.50206164 322.35854265 705.10812839 324.28515625 698.671875 C324.90036834 696.64056661 325.54397017 694.61775934 326.20703125 692.6015625 C328.28410683 686.21114382 329.75567997 680.04640378 330.61767578 673.38134766 C331.15234375 669.80859375 331.15234375 669.80859375 331.88256836 666.54760742 C334.70626249 653.89763069 334.70261385 641.34909714 334.65234375 628.43359375 C334.65124603 627.27928864 334.65014832 626.12498352 334.64901733 624.93569946 C334.60295506 608.09518574 334.00113489 592.05677131 329.15234375 575.80859375 C328.94416016 575.08220703 328.73597656 574.35582031 328.52148438 573.60742188 C327.25185132 569.26437287 325.73628778 565.04494109 324.15234375 560.80859375 C323.64496187 559.32063102 323.14261925 557.83094328 322.64453125 556.33984375 C322.12655357 554.80850866 321.60832861 553.27725719 321.08984375 551.74609375 C320.856604 551.04282959 320.62336426 550.33956543 320.38305664 549.61499023 C318.84854121 545.18827808 316.86389863 541.671176 314.15234375 537.80859375 C313.13268948 535.48378201 312.13174773 533.15064676 311.15234375 530.80859375 C310.31703125 529.44734375 310.31703125 529.44734375 309.46484375 528.05859375 C308.15234375 525.80859375 308.15234375 525.80859375 308.15234375 522.80859375 C307.49234375 522.80859375 306.83234375 522.80859375 306.15234375 522.80859375 C304.53125 520.578125 304.53125 520.578125 302.71484375 517.62109375 C302.11800781 516.65816406 301.52117188 515.69523438 300.90625 514.703125 C299.80358566 512.88336047 298.72429817 511.04901154 297.6796875 509.1953125 C296.0729896 506.6845902 294.2895975 504.87637654 292.15234375 502.80859375 C290.90277138 501.28341976 289.67447026 499.74063919 288.46484375 498.18359375 C284.89068564 493.66431375 281.12868689 489.37299052 277.2421875 485.12109375 C275.46877534 483.15873861 273.7708413 481.16197966 272.08984375 479.12109375 C268.79152869 475.25965173 265.02516999 472.07898035 261.15234375 468.80859375 C260.06021071 467.86702927 258.96914781 466.92422273 257.87890625 465.98046875 C248.57067869 457.93253042 239.38554343 450.09339383 228.921875 443.56640625 C206.5236477 429.35032404 188.94597783 410.62357192 174.15234375 388.80859375 C173.66507813 388.13183594 173.1778125 387.45507812 172.67578125 386.7578125 C168.39723252 380.6831885 165.22095849 374.14569853 161.984375 367.48046875 C160.52246005 364.48738624 158.87297831 361.66161173 157.15234375 358.80859375 C155.65286904 355.54278866 154.43100505 352.16611085 153.15234375 348.80859375 C152.67023437 347.59429687 152.188125 346.38 151.69140625 345.12890625 C140.69204109 316.88603829 132.00268172 286.32368951 128.57421875 256.1875 C128.19289111 253.13334803 127.67947591 250.13172593 127.10424805 247.10888672 C124.91885019 235.60232168 123.74400971 223.99922285 122.52734375 212.35693359 C122.16508145 208.92912092 121.78666936 205.50352709 121.40234375 202.078125 C119.77511558 187.46377392 118.43163083 172.83825695 117.20922852 158.18579102 C116.52150769 149.9640708 115.76934689 141.75697988 114.8425293 133.55834961 C114.39734778 129.51021985 114.05018037 125.47119802 113.796875 121.40625 C112.88090136 106.98144037 111.19829433 92.74566954 109.21484375 78.43359375 C109.02384094 77.03427612 109.02384094 77.03427612 108.82897949 75.60668945 C107.55762775 66.34811827 106.27591431 57.1987073 103.78637695 48.17236328 C103.15321813 45.81185358 102.69290138 43.46596208 102.27734375 41.05859375 C99.17210606 25.25470111 93.40146298 8.57930737 83.53515625 -4.2734375 C82.15234375 -6.19140625 82.15234375 -6.19140625 81.15234375 -9.19140625 C83.82966076 -11.01867511 85.11597451 -11.1945973 88.40234375 -10.90625 C115.74573234 -5.23819341 134.17826551 10.03101009 149.52734375 32.68359375 C150.40752983 34.05527975 151.28295893 35.43003652 152.15234375 36.80859375 C152.55582031 37.41316406 152.95929687 38.01773438 153.375 38.640625 C158.87793799 47.04543382 163.16407175 56.3255233 167.12915039 65.53759766 C168.17232234 67.8529366 169.31779894 70.09034854 170.48828125 72.34375 C173.2883983 77.9204365 175.50431801 83.6425941 177.65234375 89.49609375 C178.23544312 91.06677612 178.23544312 91.06677612 178.83032227 92.66918945 C181.4225917 99.69607384 183.88543494 106.75336098 186.1796875 113.8828125 C186.8051342 115.76417627 187.48261226 117.62944358 188.22265625 119.46875 C189.28596986 122.14490485 189.92346957 124.86430615 190.59350586 127.66040039 C191.1481889 129.79262235 191.81292053 131.847331 192.53125 133.9296875 C194.22473872 138.95197055 195.70697481 144.02262018 197.15234375 149.12109375 C197.41724609 150.05187744 197.68214844 150.98266113 197.95507812 151.94165039 C199.50863181 157.43422984 200.97107713 162.93687083 202.31640625 168.484375 C205.43023691 180.86694457 208.95448363 193.15358594 212.39355469 205.44921875 C213.55664828 209.61901296 214.67847099 213.79714526 215.76953125 217.98632812 C217.51821485 224.69673107 217.51821485 224.69673107 219.77734375 231.24609375 C221.15234375 234.80859375 221.15234375 234.80859375 222.03515625 238.48046875 C223.14192481 243.00697517 224.70091393 247.28772093 226.40234375 251.62109375 C226.71026855 252.40790527 227.01819336 253.1947168 227.33544922 254.00537109 C229.81809774 260.22028917 232.68350847 266.07830784 236.15234375 271.80859375 C236.61898437 272.57945312 237.085625 273.3503125 237.56640625 274.14453125 C239.37375487 277.07222463 241.24372572 279.94566671 243.15234375 282.80859375 C243.15234375 283.79859375 243.15234375 284.78859375 243.15234375 285.80859375 C243.81234375 285.80859375 244.47234375 285.80859375 245.15234375 285.80859375 C246.7734375 287.8203125 246.7734375 287.8203125 248.58984375 290.49609375 C249.18667969 291.36621094 249.78351562 292.23632812 250.3984375 293.1328125 C251.52570687 294.85258871 252.6062453 296.60442644 253.625 298.390625 C255.03408455 300.82562918 255.03408455 300.82562918 256.9296875 302.5546875 C260.31418929 305.98677456 262.93938456 309.94049406 265.71484375 313.87109375 C266.8593946 315.48881087 268.00643738 317.1047685 269.15625 318.71875 C269.91143921 319.78814819 269.91143921 319.78814819 270.68188477 320.87915039 C272.08888784 322.83868593 272.08888784 322.83868593 273.83959961 324.37670898 C275.15234375 325.80859375 275.15234375 325.80859375 275.15234375 328.80859375 C275.81234375 328.80859375 276.47234375 328.80859375 277.15234375 328.80859375 C279.02734375 331.0390625 279.02734375 331.0390625 281.15234375 333.99609375 C281.85359375 334.95902344 282.55484375 335.92195313 283.27734375 336.9140625 C285.15234375 339.80859375 285.15234375 339.80859375 286.21484375 342.609375 C286.52421875 343.33511719 286.83359375 344.06085938 287.15234375 344.80859375 C288.14234375 345.13859375 289.13234375 345.46859375 290.15234375 345.80859375 C291.47094727 347.31152344 291.47094727 347.31152344 292.78125 349.23046875 C293.25884766 349.9265625 293.73644531 350.62265625 294.22851562 351.33984375 C294.71900391 352.07203125 295.20949219 352.80421875 295.71484375 353.55859375 C296.45637695 354.63367188 296.45637695 354.63367188 297.21289062 355.73046875 C299.23504771 358.70760936 300.99193596 361.39751479 302.3046875 364.76171875 C302.58441406 365.4371875 302.86414063 366.11265625 303.15234375 366.80859375 C304.14234375 367.13859375 305.13234375 367.46859375 306.15234375 367.80859375 C307.67428247 369.92927968 309.05089121 372.02122598 310.40234375 374.24609375 C311.20275409 375.52969058 312.00485079 376.81223731 312.80859375 378.09375 C313.20433594 378.72684082 313.60007812 379.35993164 314.0078125 380.01220703 C316.03926838 383.20065677 318.2408524 386.26485576 320.44921875 389.33203125 C322.80146194 392.75249497 324.96680292 396.28003847 327.15234375 399.80859375 C328.192369 401.47156643 329.23274979 403.1343168 330.2734375 404.796875 C335.8131071 413.67786703 341.30147151 422.52735832 346.15234375 431.80859375 C347.1904801 433.72717486 348.23221418 435.64381315 349.27734375 437.55859375 C349.77105469 438.46738281 350.26476562 439.37617188 350.7734375 440.3125 C351.92610365 442.3990543 353.11912969 444.44919299 354.33984375 446.49609375 C356.04896448 449.61965923 357.251765 452.62946387 358.4375 455.96875 C359.39445908 458.43174304 360.76963657 460.56169458 362.15234375 462.80859375 C363.20027581 465.13226918 364.19663529 467.44772147 365.15234375 469.80859375 C365.43996582 470.51846436 365.72758789 471.22833496 366.02392578 471.9597168 C374.15978644 492.2030613 381.91041839 512.35517811 386.15234375 533.80859375 C386.39726563 534.86046875 386.6421875 535.91234375 386.89453125 536.99609375 C393.35887188 565.78573451 394.11373915 596.17014013 390.40234375 625.37109375 C390.16729126 627.23290283 390.16729126 627.23290283 389.92749023 629.13232422 C388.88505046 636.53379646 387.23858199 643.55168851 385.08398438 650.70703125 C384.35013152 653.15013048 383.69082808 655.57376032 383.10546875 658.0546875 C381.9163017 662.73825118 380.43819921 667.29132948 378.90234375 671.87109375 C378.59441895 672.79212891 378.28649414 673.71316406 377.96923828 674.66210938 C375.7115779 681.33410519 373.23491027 687.87455944 370.5546875 694.38671875 C369.17339177 697.75723423 367.87404229 701.15006679 366.58984375 704.55859375 C364.6876662 709.53961638 362.57469456 714.37698752 360.328125 719.2109375 C359.23013724 721.63672441 358.23848105 724.07599655 357.27734375 726.55859375 C353.34999896 736.5353164 348.52131957 746.15128249 343.68359375 755.7109375 C341.94113632 759.23585775 340.29530396 762.7990902 338.65234375 766.37109375 C335.74227307 772.67254046 332.53428763 778.74998575 329.15234375 784.80859375 C327.85294008 787.20027912 326.56471246 789.59791348 325.27734375 791.99609375 C324.68179688 793.10339844 324.08625 794.21070313 323.47265625 795.3515625 C323.03695312 796.16238281 322.60125 796.97320313 322.15234375 797.80859375 C321.49234375 797.80859375 320.83234375 797.80859375 320.15234375 797.80859375 C319.92546875 798.62070312 319.69859375 799.4328125 319.46484375 800.26953125 C317.8354435 804.66309264 315.579086 808.43986937 313.15234375 812.43359375 C312.25538632 813.92510582 311.35951551 815.41727201 310.46484375 816.91015625 C310.06910156 817.56322754 309.67335938 818.21629883 309.265625 818.88916016 C308.14209834 820.82625809 307.13271577 822.79580942 306.15234375 824.80859375 C305.49234375 824.80859375 304.83234375 824.80859375 304.15234375 824.80859375 C303.88679687 825.52789063 303.62125 826.2471875 303.34765625 826.98828125 C299.92882033 835.0549464 294.24342559 842.20736138 289.046875 849.203125 C287.72820719 851.0166331 286.45502531 852.86372812 285.21875 854.734375 C283.03098207 857.98914505 280.68788381 861.09350129 278.27734375 864.18359375 C275.567477 867.67422797 272.87304611 871.1692777 270.27734375 874.74609375 C262.91804123 884.60714217 254.43618697 893.7290469 246.15234375 902.80859375 C245.26675781 903.78699219 244.38117187 904.76539063 243.46875 905.7734375 C232.64635146 917.69920013 221.2034431 928.33752079 208.7890625 938.57421875 C206.29727917 940.6176324 206.29727917 940.6176324 204.72290039 942.26098633 C201.71138213 945.22849981 198.25585514 947.68080085 194.90234375 950.24609375 C194.16371094 950.81908203 193.42507813 951.39207031 192.6640625 951.98242188 C189.30581565 954.55589323 185.99946454 956.98215414 182.29296875 959.03125 C179.65313645 960.52518495 178.17407332 961.66624963 176.15234375 963.80859375 C169.94601277 968.1383483 163.38869539 971.84050077 156.71875 975.3984375 C153.784044 977.01096241 150.98339558 978.77456604 148.19921875 980.6328125 C145.29975523 982.29834403 142.23478395 983.52889802 139.15234375 984.80859375 C137.69103517 985.43011784 136.23011606 986.05255821 134.76953125 986.67578125 C120.1123235 992.89394399 105.55881145 998.70418012 90.15234375 1002.80859375 C89.32057617 1003.0307959 88.48880859 1003.25299805 87.63183594 1003.48193359 C70.01932531 1008.08093871 52.35260818 1010.05407416 34.15234375 1009.80859375 C34.15234375 1008.48859375 34.15234375 1007.16859375 34.15234375 1005.80859375 C36.25811588 1004.0172045 38.22596828 1002.54914706 40.52734375 1001.05859375 C41.130625 1000.64738281 41.73390625 1000.23617187 42.35546875 999.8125 C46.84635849 996.80859375 46.84635849 996.80859375 49.15234375 996.80859375 C49.81234375 995.48859375 50.47234375 994.16859375 51.15234375 992.80859375 C52.14234375 992.80859375 53.13234375 992.80859375 54.15234375 992.80859375 C54.49458984 991.95974609 54.49458984 991.95974609 54.84375 991.09375 C56.50552458 988.19184514 58.56791344 986.43472931 61.08984375 984.24609375 C64.56489183 981.24130087 64.56489183 981.24130087 67.84375 978.03125 C69.15234375 976.80859375 69.15234375 976.80859375 71.15234375 976.80859375 C71.48234375 975.81859375 71.81234375 974.82859375 72.15234375 973.80859375 C73.77944492 972.07979875 75.43462243 970.44451882 77.15234375 968.80859375 C86.72734211 959.60471936 94.78447958 949.79926563 101.87866211 938.58349609 C102.92127089 936.95959865 104.03107916 935.37921201 105.15234375 933.80859375 C105.81234375 933.80859375 106.47234375 933.80859375 107.15234375 933.80859375 C107.42046875 933.10734375 107.68859375 932.40609375 107.96484375 931.68359375 C109.22048865 928.64361135 110.65469498 925.73581635 112.15234375 922.80859375 C112.81234375 922.80859375 113.47234375 922.80859375 114.15234375 922.80859375 C114.22710938 922.14601563 114.301875 921.4834375 114.37890625 920.80078125 C115.42604221 916.74974011 117.41021673 913.51797019 119.52734375 909.93359375 C122.4236617 904.99116731 124.99574533 900.13382561 127.15234375 894.80859375 C127.89484375 893.00261719 127.89484375 893.00261719 128.65234375 891.16015625 C131.09000044 885.12675614 133.47629786 879.10586813 135.44140625 872.8984375 C136.23546932 870.56424111 137.1868973 868.32702996 138.15234375 866.05859375 C140.1773558 861.11199942 141.34789867 856.10982556 142.44140625 850.88671875 C143.15234375 847.80859375 143.15234375 847.80859375 144.08203125 845.1875 C151.99619078 820.20301828 152.31467715 793.3146124 152.33984375 767.37109375 C152.34102203 766.43741974 152.34220032 765.50374573 152.34341431 764.54177856 C152.34073534 745.79705036 151.46395607 727.68431062 148.36083984 709.17773438 C147.90420217 706.44471655 147.46675118 703.7091125 147.03125 700.97265625 C144.52075156 685.52836456 141.2977226 670.18346787 136.046875 655.4140625 C134.95859178 652.24425941 134.06977525 649.03181317 133.15234375 645.80859375 C128.43285763 630.91485313 123.30508274 616.02494704 116.27734375 602.046875 C114.91885805 599.33929838 113.56609251 596.62913824 112.22265625 593.9140625 C106.09834115 581.56279016 99.81108056 569.29669896 92.15234375 557.80859375 C92.15234375 556.81859375 92.15234375 555.82859375 92.15234375 554.80859375 C91.49234375 554.80859375 90.83234375 554.80859375 90.15234375 554.80859375 C88.49609375 552.578125 88.49609375 552.578125 86.65234375 549.62109375 C86.04390625 548.65816406 85.43546875 547.69523438 84.80859375 546.703125 C83.32613971 544.11232679 82.17544368 541.60677206 81.15234375 538.80859375 C80.49234375 538.80859375 79.83234375 538.80859375 79.15234375 538.80859375 C77.88720703 537.41918945 77.88720703 537.41918945 76.47265625 535.484375 C75.95574219 534.78505859 75.43882812 534.08574219 74.90625 533.36523438 C74.36871094 532.62466797 73.83117187 531.88410156 73.27734375 531.12109375 C72.21813707 529.67918101 71.15825559 528.23776368 70.09765625 526.796875 C69.59137695 526.10803223 69.08509766 525.41918945 68.56347656 524.70947266 C65.94608745 521.18369556 63.2616918 517.90191423 60.15234375 514.80859375 C54.63739169 508.28897988 49.34632369 501.58550091 44.15234375 494.80859375 C43.5696875 494.0609375 42.98703125 493.31328125 42.38671875 492.54296875 C41.835 491.82625 41.28328125 491.10953125 40.71484375 490.37109375 C40.22113281 489.73300781 39.72742188 489.09492187 39.21875 488.4375 C38.15234375 486.80859375 38.15234375 486.80859375 38.15234375 484.80859375 C37.49234375 484.80859375 36.83234375 484.80859375 36.15234375 484.80859375 C34.52734375 482.30859375 34.52734375 482.30859375 33.15234375 479.80859375 C34.33045087 483.79603325 35.66556715 486.52604863 38.15234375 489.80859375 C38.87460736 491.47021754 39.5940107 493.13318887 40.29370117 494.80444336 C42.09417271 499.00690878 44.1220547 503.10906218 46.10351562 507.22851562 C50.23426837 515.91185137 53.59474364 524.80133156 56.58984375 533.93359375 C56.89059814 534.85027832 57.19135254 535.76696289 57.5012207 536.71142578 C58.10568686 538.55782439 58.70882634 540.40465792 59.31054688 542.25195312 C60.04473755 544.48178049 60.80275807 546.70084823 61.57421875 548.91796875 C70.12695618 574.36500233 73.99620787 605.41044895 68.15234375 631.80859375 C67.90742187 633.08992187 67.6625 634.37125 67.41015625 635.69140625 C62.9021701 658.05905725 52.35671951 678.87817868 37.15234375 695.80859375 C35.96480082 697.20439056 34.77729626 698.60022002 33.58984375 699.99609375 C27.15031928 707.26119828 20.26390487 713.73811213 12.66796875 719.78515625 C10.60920752 721.44111637 8.66303487 723.15267156 6.71484375 724.93359375 C4.15234375 726.80859375 4.15234375 726.80859375 1.77734375 726.62109375 C1.24109375 726.35296875 0.70484375 726.08484375 0.15234375 725.80859375 C1.4954756 722.02767758 3.18199059 719.15207459 5.65234375 715.99609375 C6.26078125 715.20589844 6.86921875 714.41570313 7.49609375 713.6015625 C8.04265625 713.00988281 8.58921875 712.41820312 9.15234375 711.80859375 C9.81234375 711.80859375 10.47234375 711.80859375 11.15234375 711.80859375 C11.24515625 711.25429688 11.33796875 710.7 11.43359375 710.12890625 C12.34419001 707.18926398 13.84333785 705.16726988 15.65234375 702.68359375 C18.09716718 699.36389921 18.09716718 699.36389921 20.15234375 695.80859375 C20.81234375 695.80859375 21.47234375 695.80859375 22.15234375 695.80859375 C22.23484375 695.12796875 22.31734375 694.44734375 22.40234375 693.74609375 C23.34852183 690.0402296 25.22986769 687.07363602 27.15234375 683.80859375 C48.46380189 646.8269458 57.29161213 600.89111839 46.57983398 558.9621582 C45.53861492 555.21021481 44.35965388 551.50985942 43.15234375 547.80859375 C42.8982373 547.00035156 42.64413086 546.19210937 42.38232422 545.359375 C38.50782216 533.10160024 33.53835372 521.95475962 27.15234375 510.80859375 C26.80550537 510.19145508 26.45866699 509.57431641 26.10131836 508.93847656 C24.21639936 505.59607206 22.25125421 502.35366242 20.08984375 499.18359375 C18.60848766 497.00674688 17.17688221 494.85140554 15.8671875 492.56640625 C13.41578007 488.6240517 10.60057032 484.9902338 7.77734375 481.30859375 C7.21273438 480.56222656 6.648125 479.81585937 6.06640625 479.046875 C3.62067466 475.84817512 1.21988582 472.87594662 -1.63671875 470.02734375 C-3.71100125 467.94573163 -4.5890953 466.39475064 -5.84765625 463.80859375 C-7.61269277 462.01624242 -7.61269277 462.01624242 -9.66015625 460.37109375 C-13.72626916 456.92884293 -17.44433901 453.24983849 -21.16015625 449.43359375 C-28.60069188 442.16609383 -36.67777343 435.01336611 -45.47265625 429.43359375 C-46.25640625 428.89734375 -47.04015625 428.36109375 -47.84765625 427.80859375 C-47.84765625 427.14859375 -47.84765625 426.48859375 -47.84765625 425.80859375 C-49.02328125 425.49921875 -49.02328125 425.49921875 -50.22265625 425.18359375 C-56.40426386 422.83884604 -62.23206942 419.58020042 -66.84765625 414.80859375 C-67.83765625 414.14859375 -68.82765625 413.48859375 -69.84765625 412.80859375 C-69.84765625 412.14859375 -69.84765625 411.48859375 -69.84765625 410.80859375 C-70.65203125 410.46828125 -70.65203125 410.46828125 -71.47265625 410.12109375 C-77.98948106 406.51969057 -85.45588562 399.98390564 -87.84765625 392.80859375 C-88.83765625 392.47859375 -89.82765625 392.14859375 -90.84765625 391.80859375 C-90.99203125 391.16921875 -91.13640625 390.52984375 -91.28515625 389.87109375 C-91.47078125 389.19046875 -91.65640625 388.50984375 -91.84765625 387.80859375 C-92.43675781 387.57527344 -93.02585937 387.34195312 -93.6328125 387.1015625 C-96.8743179 385.20925511 -98.14465924 382.27832248 -99.84765625 379.05859375 C-100.51214121 377.8334496 -101.17879565 376.60947954 -101.84765625 375.38671875 C-102.17564209 374.78593506 -102.50362793 374.18515137 -102.84155273 373.56616211 C-104.37331988 370.89030875 -106.12907404 368.36705802 -107.84765625 365.80859375 C-111.98944592 358.47700786 -114.95924732 350.69846593 -117.84765625 342.80859375 C-118.09692871 342.14375977 -118.34620117 341.47892578 -118.60302734 340.79394531 C-121.80107707 332.25656025 -124.51189196 323.93257645 -126.20703125 314.95703125 C-126.80241737 311.78275167 -126.80241737 311.78275167 -127.80078125 308.65234375 C-129.21387634 303.46396476 -130.02773568 298.24386055 -130.84765625 292.93359375 C-131.01265625 291.93457031 -131.17765625 290.93554688 -131.34765625 289.90625 C-134.80524904 267.67500885 -135.17448162 245.36035773 -135.10839844 222.91870117 C-135.09707498 219.04597603 -135.10374431 215.17352813 -135.11528015 211.30081272 C-135.1864526 183.0615907 -133.52317372 155.16956944 -130.5703125 127.08203125 C-129.72090245 118.80498988 -129.12127976 110.51558529 -128.55126953 102.21533203 C-128.16172654 96.65384409 -127.6840683 91.13177861 -126.99731445 85.59936523 C-125.90642217 76.74907735 -125.6354612 67.97540678 -125.59765625 59.05859375 C-125.58847168 57.85533447 -125.57928711 56.6520752 -125.56982422 55.41235352 C-125.59066432 49.50001658 -125.79600528 44.37736066 -127.84765625 38.80859375 C-132.06079377 41.39392814 -134.82809399 43.92629941 -137.84765625 47.80859375 C-138.50765625 47.80859375 -139.16765625 47.80859375 -139.84765625 47.80859375 C-140.25177734 48.86820313 -140.25177734 48.86820313 -140.6640625 49.94921875 C-141.89137525 52.91421194 -143.30530491 55.71185682 -144.78515625 58.55859375 C-146.89447276 62.75175194 -148.70549911 66.81230537 -150.07421875 71.296875 C-150.67404761 73.24480406 -151.3249124 75.17705272 -151.99609375 77.1015625 C-155.27812896 86.53990012 -157.66943311 96.06126216 -159.84765625 105.80859375 C-171.08057431 155.7392473 -171.08057431 155.7392473 -180.84765625 175.80859375 C-181.14124023 176.41251953 -181.43482422 177.01644531 -181.73730469 177.63867188 C-183.40197732 181.0489515 -185.10474267 184.43768398 -186.84765625 187.80859375 C-187.50765625 187.80859375 -188.16765625 187.80859375 -188.84765625 187.80859375 C-188.94949219 188.51371094 -189.05132812 189.21882812 -189.15625 189.9453125 C-189.94680437 193.2191902 -191.25289359 195.69443842 -192.91015625 198.62109375 C-193.45800781 199.59691406 -194.00585938 200.57273438 -194.5703125 201.578125 C-195.20259766 202.68220703 -195.20259766 202.68220703 -195.84765625 203.80859375 C-196.50765625 203.80859375 -197.16765625 203.80859375 -197.84765625 203.80859375 C-198.21890625 205.13890625 -198.21890625 205.13890625 -198.59765625 206.49609375 C-199.90495309 209.96043037 -201.47298864 212.00216839 -203.84765625 214.80859375 C-204.84929699 216.47427487 -205.84909278 218.141066 -206.84765625 219.80859375 C-210.77004252 225.50581544 -214.93670185 230.98187027 -219.34765625 236.30859375 C-223.76228028 241.64419968 -227.86676904 247.14381715 -231.84765625 252.80859375 C-232.39035156 253.53046875 -232.93304688 254.25234375 -233.4921875 254.99609375 C-235.91448996 258.41267463 -237.22377003 260.80128671 -236.91015625 265.05859375 C-235.81028925 268.94047729 -234.867509 270.27581403 -231.84765625 272.80859375 C-231.84765625 273.46859375 -231.84765625 274.12859375 -231.84765625 274.80859375 C-231.00654297 275.19724609 -231.00654297 275.19724609 -230.1484375 275.59375 C-227.59022215 276.94452245 -225.36869054 278.53728518 -223.03515625 280.24609375 C-219.07642529 283.06119132 -215.39416599 285.12836189 -210.84765625 286.80859375 C-210.9964604 291.71913061 -213.51300292 293.68320907 -216.8671875 296.84375 C-221.95642924 301.89283993 -227.63905227 307.91465277 -228.03515625 315.30859375 C-227.96368218 319.20102437 -227.96368218 319.20102437 -226.84765625 322.80859375 C-225.20213663 323.52587153 -223.53343336 324.19184603 -221.84765625 324.80859375 C-221.18765625 325.79859375 -220.52765625 326.78859375 -219.84765625 327.80859375 C-218.11435834 328.88372901 -216.33505296 329.75226189 -214.50390625 330.6484375 C-212.45214622 332.08563733 -211.80088047 333.52562174 -210.84765625 335.80859375 C-211.58371094 336.11152344 -212.31976563 336.41445313 -213.078125 336.7265625 C-220.95076919 339.96513137 -220.95076919 339.96513137 -226.84765625 345.80859375 C-226.75741436 349.4182692 -225.26251996 352.50724509 -223.84765625 355.80859375 C-223.18765625 355.80859375 -222.52765625 355.80859375 -221.84765625 355.80859375 C-220.296875 357.3828125 -220.296875 357.3828125 -218.53515625 359.49609375 C-216.43474879 361.97720006 -214.36469149 364.28082596 -212.03515625 366.55859375 C-208.6088843 370.08275919 -208.6088843 370.08275919 -207.84765625 372.80859375 C-208.86829542 375.46464305 -209.96680221 377.89410642 -211.22265625 380.43359375 C-215.6045836 390.14397857 -217.21546123 400.46552245 -213.8828125 410.80078125 C-210.22964462 417.92037361 -204.92337874 420.99070245 -197.73828125 423.9765625 C-189.13194405 426.45379199 -179.97335047 426.00935565 -171.09765625 425.99609375 C-170.41468475 425.99582184 -169.73171326 425.99554993 -169.02804565 425.99526978 C-154.29846967 425.9683953 -139.8644512 425.1238362 -125.41015625 422.18359375 C-115.99520134 420.30443778 -105.40205819 418.5443464 -96.84765625 423.80859375 C-90.66945348 428.10910744 -85.75772204 432.66741995 -81.41796875 438.828125 C-79.93281312 440.88543628 -79.93281312 440.88543628 -77.83984375 442.2578125 C-75.40194875 444.15554645 -74.36697324 446.12814071 -72.84765625 448.80859375 C-70.79323398 451.62642974 -68.69509285 454.40749157 -66.58984375 457.1875 C-65.03486041 459.52694803 -64.27261267 461.07213196 -63.84765625 463.80859375 C-63.18765625 463.80859375 -62.52765625 463.80859375 -61.84765625 463.80859375 C-57.22403122 472.07507486 -52.95897019 480.49502891 -48.75976562 488.98144531 C-47.96466642 490.57419757 -47.15000166 492.15715289 -46.33203125 493.73828125 C-45.69007813 494.97964844 -45.69007813 494.97964844 -45.03515625 496.24609375 C-44.67808594 496.92542969 -44.32101562 497.60476563 -43.953125 498.3046875 C-42.30095445 502.04688298 -41.10424656 505.91865606 -39.84765625 509.80859375 C-39.22527888 511.69011028 -38.60288208 513.57162037 -37.98046875 515.453125 C-31.75643844 534.47757759 -26.68985912 553.03816962 -24.2297821 572.92459106 C-23.96452396 574.92656292 -23.67166937 576.92499514 -23.35720825 578.91983032 C-22.09777192 586.99975317 -21.51730069 594.85578225 -21.4765625 603.02734375 C-21.46540405 604.23675125 -21.45424561 605.44615875 -21.44274902 606.69221497 C-21.41579218 610.56448144 -21.40922646 614.43623773 -21.41015625 618.30859375 C-21.4096867 618.96745449 -21.40921715 619.62631523 -21.40873337 620.30514145 C-21.40073357 640.24477318 -21.70649197 659.43992707 -26.84765625 678.80859375 C-27.10998047 679.81937988 -27.37230469 680.83016602 -27.64257812 681.87158203 C-30.61934802 692.96308377 -34.59951542 703.29236155 -40.05078125 713.3984375 C-41.84660294 716.80659476 -43.33174146 720.26883428 -44.84765625 723.80859375 C-46.06592533 726.25419342 -47.3570638 728.65731542 -48.66015625 731.05859375 C-49.01561523 731.71770752 -49.37107422 732.37682129 -49.73730469 733.0559082 C-50.45012993 734.37662748 -51.16412907 735.69671396 -51.87939453 737.01611328 C-52.68851808 738.51399152 -53.48628956 740.0179947 -54.28125 741.5234375 C-57.69029014 747.92676809 -61.35368515 754.18420326 -65.03515625 760.43359375 C-65.55883789 761.3361792 -66.08251953 762.23876465 -66.62207031 763.16870117 C-67.12319336 764.01150635 -67.62431641 764.85431152 -68.140625 765.72265625 C-68.58946045 766.48529785 -69.0382959 767.24793945 -69.50073242 768.03369141 C-70.84765625 769.80859375 -70.84765625 769.80859375 -73.84765625 770.80859375 C-74.56297632 772.45496534 -75.2226423 774.12586389 -75.84765625 775.80859375 C-85.77413937 791.49884127 -99.00780625 805.49373927 -111.84765625 818.80859375 C-112.39276855 819.3809375 -112.93788086 819.95328125 -113.49951172 820.54296875 C-120.45387908 827.82949124 -127.69597327 834.2959242 -135.71484375 840.390625 C-138.19272875 842.30310732 -140.4958537 844.24531281 -142.78515625 846.37109375 C-148.59492805 851.56016344 -155.30741405 855.61449093 -161.84765625 859.80859375 C-162.70182129 860.36063477 -162.70182129 860.36063477 -163.57324219 860.92382812 C-170.75768305 865.54819755 -178.09203227 869.54799201 -185.76171875 873.28125 C-188.11243332 874.44470493 -190.35567051 875.64353428 -192.59765625 876.99609375 C-196.87154691 879.37960969 -201.27826157 881.07475229 -205.84765625 882.80859375 C-207.57822266 883.48921875 -207.57822266 883.48921875 -209.34375 884.18359375 C-243.75972597 897.59120756 -278.91666273 903.09144005 -315.72265625 903.05859375 C-316.47269928 903.05799957 -317.22274231 903.0574054 -317.99551392 903.05679321 C-330.42703945 903.01890215 -330.42703945 903.01890215 -332.84765625 901.80859375 C-332.84765625 900.81859375 -332.84765625 899.82859375 -332.84765625 898.80859375 C-308.14368389 885.65415835 -308.14368389 885.65415835 -298.34375 881.83203125 C-294.05123554 880.07203315 -289.95391202 877.96187421 -285.84765625 875.80859375 C-284.96078125 875.34453125 -284.07390625 874.88046875 -283.16015625 874.40234375 C-262.05871605 863.13225637 -245.53981259 849.30226446 -237.84765625 825.80859375 C-231.4128868 799.04368313 -236.49155344 767.04688466 -246.94213867 742.03100586 C-247.8124735 739.89494279 -248.56920916 737.75060587 -249.28515625 735.55859375 C-250.59724469 731.54345973 -251.9559018 727.54690502 -253.34765625 723.55859375 C-253.9509375 721.81835938 -253.9509375 721.81835938 -254.56640625 720.04296875 C-255.75385138 717.04539385 -257.16096322 714.54328538 -258.84765625 711.80859375 C-259.53032563 710.2407903 -260.17673572 708.65667685 -260.78515625 707.05859375 C-263.87959362 698.96751075 -267.58770694 691.13773512 -271.28515625 683.30859375 C-271.65447266 682.51839844 -272.02378906 681.72820313 -272.40429688 680.9140625 C-275.00231127 675.41185524 -277.84137815 670.09716469 -280.84765625 664.80859375 C-281.87646816 662.97926006 -282.9051051 661.14982796 -283.93359375 659.3203125 C-285.02960095 657.37871035 -286.12596429 655.4373092 -287.22265625 653.49609375 C-287.79338867 652.48369629 -288.36412109 651.47129883 -288.95214844 650.42822266 C-292.43405245 644.2640437 -295.97127132 638.14686425 -299.67578125 632.11328125 C-300.91847011 629.66932649 -301.4438971 627.50993473 -301.84765625 624.80859375 C-302.50765625 624.80859375 -303.16765625 624.80859375 -303.84765625 624.80859375 C-304.68614429 623.35321807 -305.51829559 621.89419002 -306.34765625 620.43359375 C-306.81171875 619.62148438 -307.27578125 618.809375 -307.75390625 617.97265625 C-308.84765625 615.80859375 -308.84765625 615.80859375 -308.84765625 613.80859375 C-309.50765625 613.80859375 -310.16765625 613.80859375 -310.84765625 613.80859375 C-311.12738281 613.28652344 -311.40710938 612.76445313 -311.6953125 612.2265625 C-314.65087211 606.80011704 -317.84580844 601.57615913 -321.19921875 596.38671875 C-325.84765625 589.11665062 -325.84765625 589.11665062 -325.84765625 586.80859375 C-326.50765625 586.80859375 -327.16765625 586.80859375 -327.84765625 586.80859375 C-328.17765625 585.15859375 -328.50765625 583.50859375 -328.84765625 581.80859375 C-329.50765625 581.80859375 -330.16765625 581.80859375 -330.84765625 581.80859375 C-332.109375 579.97265625 -332.109375 579.97265625 -333.53515625 577.43359375 C-336.20869479 572.81387642 -339.11963282 568.46481025 -342.234375 564.1328125 C-346.84765625 557.48655985 -346.84765625 557.48655985 -346.84765625 554.80859375 C-347.50765625 554.80859375 -348.16765625 554.80859375 -348.84765625 554.80859375 C-370.81291764 510.75147004 -369.77211234 456.29798251 -357.50170898 409.32910156 C-356.73713926 406.382697 -356.1235806 403.41974725 -355.53515625 400.43359375 C-354.1753385 393.97445943 -352.51599268 387.6152796 -350.78515625 381.24609375 C-350.39880005 379.81740967 -350.39880005 379.81740967 -350.00463867 378.35986328 C-349.63109253 377.00223877 -349.63109253 377.00223877 -349.25 375.6171875 C-349.02820068 374.81079834 -348.80640137 374.00440918 -348.57788086 373.17358398 C-347.80021551 370.65494665 -346.83544918 368.25128933 -345.84765625 365.80859375 C-345.50163069 364.35784957 -345.18788557 362.89894654 -344.91015625 361.43359375 C-344.18801743 358.0188288 -343.15785546 355.0495046 -341.6953125 351.8671875 C-340.13647547 348.08144042 -339.06402308 344.13125296 -337.8828125 340.21484375 C-335.53660501 332.49449308 -332.97308209 324.89947549 -329.91015625 317.43359375 C-328.69455271 314.43033795 -327.5540316 311.40236344 -326.41015625 308.37109375 C-324.46439646 303.28585652 -322.31751608 298.34242527 -320.0234375 293.40625 C-318.92544974 290.98046309 -317.93379355 288.54119095 -316.97265625 286.05859375 C-314.73839558 280.36395374 -312.11218224 274.8657623 -309.50390625 269.3359375 C-308.25284225 266.67152525 -307.02967943 264.00381041 -305.84765625 261.30859375 C-300.82026498 249.91175336 -295.37118706 238.7339035 -289.75585938 227.61767578 C-288.95829088 226.02897079 -288.17522521 224.4330023 -287.39453125 222.8359375 C-282.56635321 212.97147031 -277.18158118 203.40567171 -271.84765625 193.80859375 C-274.99571922 196.75423139 -277.31902368 199.81938095 -279.66015625 203.43359375 C-282.78575882 208.20946783 -285.9932411 212.90607747 -289.3046875 217.5546875 C-290.92405884 219.92019956 -292.38296936 222.34443069 -293.84765625 224.80859375 C-294.89901934 226.47900267 -295.95065537 228.14924313 -297.00561523 229.81738281 C-310.43945236 251.10671346 -323.43419019 272.81764219 -333.9453125 295.71484375 C-335.86092382 299.87774818 -337.90507669 303.96952248 -339.97265625 308.05859375 C-345.40991364 318.87276743 -350.3161 329.73084994 -354.4765625 341.09765625 C-355.56762272 344.05066824 -356.70727049 346.96291211 -357.91015625 349.87109375 C-360.54385891 356.40657813 -362.71096511 363.09807198 -364.84765625 369.80859375 C-365.08242676 370.54335938 -365.31719727 371.278125 -365.55908203 372.03515625 C-376.15659384 405.49352131 -382.48303505 439.63850824 -381.84765625 474.80859375 C-381.82251953 476.65130859 -381.82251953 476.65130859 -381.796875 478.53125 C-380.97277208 500.16983808 -376.59134781 521.62527402 -368.84765625 541.80859375 C-368.39132812 543.04609375 -367.935 544.28359375 -367.46484375 545.55859375 C-362.42734947 558.99191183 -356.65061437 572.11563777 -350.47265625 585.05859375 C-347.81315478 590.647583 -345.17447445 596.24348303 -342.59765625 601.87109375 C-340.86002146 605.66404726 -339.057354 609.40551359 -337.16015625 613.12109375 C-335.38631295 616.62358689 -333.91248339 620.11951179 -332.58984375 623.8125 C-330.6944609 628.9100823 -328.3645775 633.83413242 -325.91015625 638.68359375 C-322.15596182 646.10364862 -318.84404545 653.69203918 -315.8046875 661.4296875 C-314.91276135 663.64676108 -313.96080806 665.82053318 -312.97265625 667.99609375 C-310.33005048 673.86969798 -307.99638196 679.86780214 -305.62548828 685.85449219 C-304.88297657 687.71986059 -304.12926266 689.58075831 -303.375 691.44140625 C-297.07732234 706.99247162 -291.23100863 722.60198372 -286.84765625 738.80859375 C-286.5959668 739.72302246 -286.34427734 740.63745117 -286.08496094 741.57958984 C-277.13764331 774.36658629 -274.79717821 804.5994077 -289.84765625 835.80859375 C-290.50765625 835.80859375 -291.16765625 835.80859375 -291.84765625 835.80859375 C-291.89921875 836.50339844 -291.95078125 837.19820312 -292.00390625 837.9140625 C-293.15204537 841.85281755 -295.56069051 844.24159702 -298.34765625 847.12109375 C-298.89083496 847.69214844 -299.43401367 848.26320313 -299.99365234 848.8515625 C-307.29844994 856.45526115 -314.04009766 862.63958269 -323.84765625 866.80859375 C-324.51539063 867.09347656 -325.183125 867.37835937 -325.87109375 867.671875 C-327.84426958 868.45711844 -329.83235673 869.13934794 -331.84765625 869.80859375 C-332.58628906 870.08832031 -333.32492187 870.36804688 -334.0859375 870.65625 C-349.80100723 875.91090007 -366.98043289 873.48546853 -381.84765625 866.80859375 C-385.53026993 864.7948799 -388.67891506 862.55042673 -391.84765625 859.80859375 C-392.53730469 859.24140625 -393.22695313 858.67421875 -393.9375 858.08984375 C-395.96140456 856.38059614 -397.90921194 854.61389239 -399.84765625 852.80859375 C-400.51667969 852.20402344 -401.18570313 851.59945312 -401.875 850.9765625 C-420.87918618 833.06666727 -427.8156824 804.45328818 -428.96777344 779.17285156 C-429.08003303 774.37881475 -429.01924368 769.60033165 -428.84765625 764.80859375 C-427.0390625 764.97265625 -427.0390625 764.97265625 -424.84765625 765.80859375 C-423.25 768.20703125 -423.25 768.20703125 -421.78515625 771.18359375 C-420.07693712 774.61815636 -418.59259203 777.15325528 -415.84765625 779.80859375 C-415.84765625 780.46859375 -415.84765625 781.12859375 -415.84765625 781.80859375 C-415.24953125 782.07671875 -414.65140625 782.34484375 -414.03515625 782.62109375 C-411.84765625 783.80859375 -411.84765625 783.80859375 -410.4375 785.23046875 C-402.33918094 793.26909504 -388.08971868 795.94292838 -377.03515625 796.18359375 C-362.64246473 795.55022796 -350.54444253 792.61118035 -340.2421875 782.18359375 C-335.8201665 776.78898748 -334.63761253 770.15853148 -334.96875 763.30078125 C-336.13249422 755.83842141 -339.46193724 747.19431276 -344.84765625 741.80859375 C-344.84765625 740.81859375 -344.84765625 739.82859375 -344.84765625 738.80859375 C-345.50765625 738.80859375 -346.16765625 738.80859375 -346.84765625 738.80859375 C-348.29296875 737.12109375 -348.29296875 737.12109375 -349.97265625 734.80859375 C-356.61907253 726.05176901 -364.83376186 717.87944517 -374.3984375 712.328125 C-376.84765625 710.80859375 -376.84765625 710.80859375 -378.73828125 708.91015625 C-381.9184722 705.74174379 -385.68285482 703.43826021 -389.421875 700.98828125 C-390.93015285 699.97592242 -392.39342609 698.89716488 -393.84765625 697.80859375 C-393.84765625 697.14859375 -393.84765625 696.48859375 -393.84765625 695.80859375 C-394.61078125 695.54046875 -395.37390625 695.27234375 -396.16015625 694.99609375 C-398.83600844 693.81374046 -399.86850244 692.86833251 -401.84765625 690.80859375 C-403.01933107 689.78523436 -404.19835588 688.77025673 -405.3828125 687.76171875 C-410.56802177 683.24583624 -415.4229953 678.41724918 -420.28515625 673.55859375 C-421.17525391 672.68074219 -422.06535156 671.80289063 -422.98242188 670.8984375 C-428.37648345 665.51619637 -433.31298918 659.99096734 -438.05493164 654.03222656 C-439.80691157 651.77822102 -439.80691157 651.77822102 -441.84765625 649.80859375 C-441.84765625 648.81859375 -441.84765625 647.82859375 -441.84765625 646.80859375 C-442.83765625 646.47859375 -443.82765625 646.14859375 -444.84765625 645.80859375 C-446.890625 643.19140625 -446.890625 643.19140625 -449.03515625 639.93359375 C-449.75058594 638.86367188 -450.46601563 637.79375 -451.203125 636.69140625 C-452.84765625 633.80859375 -452.84765625 633.80859375 -452.84765625 630.80859375 C-453.50765625 630.80859375 -454.16765625 630.80859375 -454.84765625 630.80859375 C-463.39851952 615.79335237 -471.43543886 601.09823716 -476.07421875 584.3203125 C-476.86596053 581.62206091 -476.86596053 581.62206091 -478.2421875 578.359375 C-489.14236416 549.49669935 -488.89225383 515.0204115 -486.84765625 484.80859375 C-486.79625488 483.96071289 -486.74485352 483.11283203 -486.69189453 482.23925781 C-485.95569555 470.71880214 -484.01406243 459.40688324 -481.97265625 448.05859375 C-481.8496817 447.37061707 -481.72670715 446.68264038 -481.6000061 445.97381592 C-479.2744454 433.07638611 -476.58407856 420.18940546 -472.22265625 407.80859375 C-470.90824512 403.99359558 -469.63015711 400.24109749 -468.72265625 396.30859375 C-467.79003799 392.57812073 -466.39075465 389.32685809 -464.84765625 385.80859375 C-463.37054563 381.68112466 -462.06808747 377.49208361 -460.72265625 373.3203125 C-458.11737727 365.31690375 -455.17931864 357.54095661 -451.84765625 349.80859375 C-450.99217639 347.72579931 -450.13800541 345.64246677 -449.28515625 343.55859375 C-447.58864293 339.47951628 -445.76289176 335.52247253 -443.74609375 331.59375 C-441.97444402 328.07355902 -440.44870165 324.44442866 -439.08984375 320.74609375 C-436.70607335 314.38937269 -433.64335842 308.52894509 -430.42089844 302.57006836 C-427.21045168 296.59755759 -424.29106285 290.52002509 -421.49902344 284.34155273 C-420.26910968 281.65347036 -419.0923489 279.1334015 -417.30859375 276.765625 C-415.69853121 274.60882999 -414.792016 272.38430182 -413.77636719 269.90527344 C-411.79792678 265.43869977 -409.33252283 261.20686567 -406.97265625 256.93359375 C-406.45574219 255.99128906 -405.93882812 255.04898437 -405.40625 254.078125 C-402.99630141 249.68922618 -400.57149853 245.30875876 -398.13671875 240.93359375 C-396.42914958 237.86461198 -394.75359062 234.78080433 -393.09765625 231.68359375 C-387.26361627 220.99035338 -380.9574696 210.70214355 -373.84765625 200.80859375 C-373.20828125 199.83921875 -372.56890625 198.86984375 -371.91015625 197.87109375 C-369.29275468 193.984649 -366.51833497 190.22236234 -363.74609375 186.4453125 C-362.25086584 184.36860707 -360.83846459 182.28276785 -359.47265625 180.12109375 C-358.93640625 179.35796875 -358.40015625 178.59484375 -357.84765625 177.80859375 C-357.18765625 177.80859375 -356.52765625 177.80859375 -355.84765625 177.80859375 C-355.76773438 177.24527344 -355.6878125 176.68195313 -355.60546875 176.1015625 C-354.59830742 173.05412073 -352.92866607 171.44301256 -350.72265625 169.12109375 C-345.85737536 163.87619699 -341.36370773 158.42620011 -337.27734375 152.55078125 C-336.80554688 151.97585937 -336.33375 151.4009375 -335.84765625 150.80859375 C-335.18765625 150.80859375 -334.52765625 150.80859375 -333.84765625 150.80859375 C-333.57953125 150.00421875 -333.31140625 149.19984375 -333.03515625 148.37109375 C-332.64328125 147.52546875 -332.25140625 146.67984375 -331.84765625 145.80859375 C-330.85765625 145.47859375 -329.86765625 145.14859375 -328.84765625 144.80859375 C-328.55890625 144.06609375 -328.27015625 143.32359375 -327.97265625 142.55859375 C-326.55545792 139.09433116 -324.57776014 137.34822528 -321.84765625 134.80859375 C-321.02265625 133.98359375 -320.19765625 133.15859375 -319.34765625 132.30859375 C-313.82682292 126.78776042 -308.30598958 121.26692708 -302.78515625 115.74609375 C-302.29354004 115.25439697 -301.80192383 114.7627002 -301.29541016 114.25610352 C-299.90454565 112.86547355 -298.51283759 111.47568743 -297.12109375 110.0859375 C-295.56184776 108.52401239 -294.01284514 106.95181393 -292.47265625 105.37109375 C-289.9707453 102.92875211 -287.39298368 100.65987529 -284.7265625 98.40234375 C-282.79354725 96.76269672 -280.88048276 95.10246784 -278.97265625 93.43359375 C-278.29847656 92.84449219 -277.62429688 92.25539063 -276.9296875 91.6484375 C-275.54230331 90.42243758 -274.16460378 89.18538969 -272.796875 87.9375 C-267.98300914 83.56365844 -262.97228824 79.52532045 -257.79296875 75.59716797 C-254.17814453 72.85129188 -250.65121111 70.02454532 -247.16015625 67.12109375 C-242.23313108 63.06145252 -237.12464617 59.3957179 -231.84765625 55.80859375 C-230.15111351 54.6457029 -228.45642758 53.48018911 -226.76318359 52.3125 C-225.12001587 51.17960109 -223.47414223 50.05062981 -221.828125 48.921875 C-219.94486253 47.58656046 -218.0978201 46.19718889 -216.30859375 44.73828125 C-213.74033251 42.72443831 -211.1536632 41.17303979 -208.28515625 39.62109375 C-207.35574219 39.11191406 -206.42632812 38.60273437 -205.46875 38.078125 C-203.22114128 36.98949186 -201.2849113 36.28457532 -198.84765625 35.80859375 C-198.84765625 35.14859375 -198.84765625 34.48859375 -198.84765625 33.80859375 C-140.96658333 1.43600649 -140.96658333 1.43600649 -109.84765625 5.80859375 C-101.57251123 8.18780648 -96.0369464 12.34127898 -91.84765625 19.80859375 C-91.34878906 20.67226562 -90.84992188 21.5359375 -90.3359375 22.42578125 C-76.8077628 47.57387427 -75.03839064 77.9365016 -72.24560547 105.85351562 C-71.9204407 109.08521454 -71.57981376 112.31426413 -71.2265625 115.54296875 C-70.02547513 126.8327435 -69.39723878 138.14742678 -68.79049683 149.48132324 C-68.06227673 163.0553899 -67.05492533 176.59612465 -65.90063477 190.14038086 C-65.30256272 197.27314547 -64.80225625 204.38651514 -64.53570557 211.54020691 C-64.059767 224.20684378 -62.858433 236.73884145 -61.4284668 249.33105469 C-61.03565195 252.80421092 -60.65874657 256.27884491 -60.28320312 259.75390625 C-58.8894878 272.36893834 -57.11475945 284.81974224 -54.69604492 297.2800293 C-53.96835478 301.04718063 -53.41590125 304.80850391 -52.97265625 308.62109375 C-52.06081058 315.39011022 -50.49652477 321.98111819 -48.91015625 328.62109375 C-48.6570166 329.68368408 -48.40387695 330.74627441 -48.14306641 331.84106445 C-46.81088248 337.29429133 -45.32946785 342.6288534 -43.49291992 347.93383789 C-42.73324866 350.14099476 -42.09666761 352.37222164 -41.47265625 354.62109375 C-35.7324402 373.82418765 -25.35017187 390.40195769 -13.58984375 406.41796875 C-11.58975089 409.1624908 -9.70269493 411.96420111 -7.84765625 414.80859375 C-6.84891605 416.30943285 -5.84880538 417.80936047 -4.84765625 419.30859375 C-4.33976562 420.07300781 -3.831875 420.83742188 -3.30859375 421.625 C-2.40689468 422.97272669 -1.49707469 424.31510883 -0.57421875 425.6484375 C2.15234375 429.60291999 2.15234375 429.60291999 2.15234375 431.80859375 C2.81234375 431.80859375 3.47234375 431.80859375 4.15234375 431.80859375 C4.81234375 433.12859375 5.47234375 434.44859375 6.15234375 435.80859375 C-8.82243658 406.21747199 -8.82243658 406.21747199 -13.84765625 392.80859375 C-14.08742188 392.18597656 -14.3271875 391.56335938 -14.57421875 390.921875 C-18.99483744 379.33596776 -23.00294506 367.59625753 -26.84765625 355.80859375 C-27.05922363 355.16664063 -27.27079102 354.5246875 -27.48876953 353.86328125 C-33.12446875 336.70409393 -36.65954785 319.16267963 -40.28417969 301.48730469 C-40.79465159 299.06057258 -41.3422702 296.64611805 -41.90234375 294.23046875 C-42.99116361 289.37583026 -43.68086099 284.48635121 -44.34765625 279.55859375 C-44.6061031 277.69001169 -44.8652151 275.8215215 -45.125 273.953125 C-45.3103833 272.61628662 -45.3103833 272.61628662 -45.49951172 271.25244141 C-45.92819865 268.24321544 -46.41613696 265.24521876 -46.91015625 262.24609375 C-47.81244718 256.43622044 -48.40259717 250.60869386 -48.95947266 244.75805664 C-49.50664699 239.06940141 -50.11046366 233.38902745 -50.7578125 227.7109375 C-50.840242 226.98701309 -50.92267151 226.26308868 -51.00759888 225.51722717 C-51.0917807 224.77798508 -51.17596252 224.03874298 -51.26269531 223.27709961 C-53.00372002 207.98466315 -54.53587276 192.69093766 -55.84130859 177.35522461 C-56.50010508 169.63166124 -57.23042618 161.92841674 -58.15112305 154.23168945 C-58.75491252 149.04285416 -59.16142213 143.84940353 -59.54443359 138.63989258 C-60.29327035 128.47135775 -61.34901848 118.48947467 -63.07421875 108.44140625 C-63.61414607 105.29649628 -64.08392458 102.1524723 -64.49609375 98.98828125 C-65.86065794 88.52628201 -67.66445195 78.20795569 -69.78515625 67.87109375 C-70.02596924 66.68725098 -70.26678223 65.5034082 -70.51489258 64.28369141 C-72.99657621 52.45963516 -76.28455204 40.93413614 -80.34765625 29.55859375 C-80.65243896 28.6987085 -80.95722168 27.83882324 -81.27124023 26.95288086 C-84.61448952 17.57521359 -88.35390427 8.56913314 -92.67578125 -0.40625 C-93.84765625 -3.19140625 -93.84765625 -3.19140625 -93.84765625 -6.19140625 C-89.50506047 -7.4686403 -86.95234085 -7.07956117 -82.84765625 -5.19140625 C-70.3119174 3.37805957 -62.96741974 18.60757664 -55.69921875 31.51953125 C-54.6017726 33.4690031 -53.49573665 35.4137465 -52.37109375 37.34765625 C-49.31386031 42.6556137 -47.02025674 48.08799649 -44.84765625 53.80859375 C-42.29622591 60.39542577 -42.29622591 60.39542577 -39.34765625 66.80859375 C-37.23338824 71.03712978 -35.56409776 75.40578505 -33.84765625 79.80859375 C-33.3022428 81.1940732 -32.75665665 82.57948468 -32.2109375 83.96484375 C-27.66528453 95.53877555 -23.22583492 107.11029222 -19.68652344 119.03808594 C-18.79536524 121.98129411 -17.85915026 124.90697332 -16.91015625 127.83203125 C-16.57242187 128.87359375 -16.2346875 129.91515625 -15.88671875 130.98828125 C-15.19630756 133.11142545 -14.50361374 135.23382879 -13.80859375 137.35546875 C-11.85230395 143.40354027 -10.11565346 149.45085511 -8.62060547 155.62890625 C-7.76397454 159.15283586 -6.85673926 162.6617297 -5.9453125 166.171875 C-0.42325621 187.59636547 3.64279418 208.8130764 6.15234375 230.80859375 C6.47301336 233.59516141 6.79506472 236.38156874 7.1171875 239.16796875 C7.19615768 239.85234512 7.27512787 240.5367215 7.35649109 241.24183655 C8.19056601 248.45786036 9.04838903 255.6709772 9.91992188 262.88256836 C10.13038331 264.62661276 10.33875118 266.37090948 10.546875 268.11523438 C13.2578745 290.44374127 19.86310708 310.61164075 29.27734375 330.99609375 C29.58969971 331.67873291 29.90205566 332.36137207 30.22387695 333.06469727 C32.13451822 337.09373401 34.33910703 340.63901433 36.9934082 344.21972656 C38.53302151 346.33049198 39.83053429 348.55623043 41.15234375 350.80859375 C47.34993475 360.67534678 54.13350216 369.55687972 61.83496094 378.28955078 C64.76665961 381.67002319 67.45177215 385.2433071 70.15234375 388.80859375 C71.37822105 390.41527549 72.60740315 392.01944099 73.83984375 393.62109375 C74.37996094 394.32878906 74.92007813 395.03648437 75.4765625 395.765625 C77.12336083 397.84715481 77.12336083 397.84715481 79.07421875 399.69921875 C81.55294306 402.21521711 83.60464907 404.9146481 85.71484375 407.74609375 C86.47925781 408.76574219 87.24367188 409.78539062 88.03125 410.8359375 C93.15234375 418.01301364 93.15234375 418.01301364 93.15234375 420.80859375 C93.81234375 420.80859375 94.47234375 420.80859375 95.15234375 420.80859375 C96.77862517 423.21778761 98.29168026 425.6269325 99.77734375 428.12109375 C103.4307025 434.12527471 107.22653246 439.86310279 111.4609375 445.4765625 C113.18190006 447.84934459 114.65713061 450.28852863 116.15234375 452.80859375 C117.47580881 454.81513755 118.80963554 456.8148755 120.15234375 458.80859375 C122.04351908 461.61670257 123.9149945 464.41280617 125.65625 467.31640625 C127.37236056 470.17509694 129.22142023 472.92220006 131.08984375 475.68359375 C133.54244611 479.34691814 135.91405125 482.9931651 138.0390625 486.859375 C139.60398195 489.59935677 141.29283313 492.25773736 142.96484375 494.93359375 C146.383656 500.46215631 149.53005171 506.08650877 152.57421875 511.83203125 C153.88337256 514.30127681 155.22107701 516.74718895 156.58984375 519.18359375 C164.74694462 533.83417623 171.93604856 548.68605103 178.34960938 564.18652344 C178.66994141 564.95770508 178.99027344 565.72888672 179.3203125 566.5234375 C179.60156982 567.205271 179.88282715 567.88710449 180.17260742 568.58959961 C180.93263312 570.31097354 181.76304067 572.00135166 182.62060547 573.67626953 C184.15335768 576.81066719 185.34822912 579.91617146 186.4921875 583.2109375 C186.91346924 584.42322021 187.33475098 585.63550293 187.76879883 586.88452148 C188.2098357 588.17147648 188.65017099 589.45867209 189.08984375 590.74609375 C189.31433197 591.400867 189.53882019 592.05564026 189.77011108 592.73025513 C192.94585812 602.01186305 195.94762986 611.24153212 198.15234375 620.80859375 C198.45132568 622.09419189 198.45132568 622.09419189 198.75634766 623.40576172 C200.05990867 629.02264643 201.3390776 634.64458595 202.58666992 640.27416992 C202.95442306 641.92183732 203.32920705 643.56795668 203.7121582 645.2121582 C204.9549122 650.59475418 205.73262112 655.92444533 206.32373047 661.42089844 C206.79573807 665.75684543 207.32267371 670.07341709 207.9453125 674.390625 C211.599518 700.69535826 211.20274001 726.81138954 207.90234375 753.12109375 C207.7489856 754.35886566 207.7489856 754.35886566 207.5925293 755.62164307 C206.35553064 765.36898749 204.60086637 774.80572066 202.06494141 784.30029297 C201.17417363 787.72467312 200.44991166 791.14803225 199.77734375 794.62109375 C194.01333021 821.84685983 183.26688058 849.14643424 169.93359375 873.53515625 C168.55685569 876.06521436 167.23202025 878.59814492 165.96484375 881.18359375 C160.00611623 893.25649386 152.94240175 904.8977009 145.71484375 916.24609375 C145.13863281 917.15230469 144.56242188 918.05851563 143.96875 918.9921875 C140.22384155 924.79880898 136.32202913 930.49439161 132.40234375 936.18359375 C131.64244141 937.28767578 131.64244141 937.28767578 130.8671875 938.4140625 C129.62929634 940.21250815 128.39087462 942.01058859 127.15234375 943.80859375 C135.4755051 942.00237511 142.4997165 934.73453347 148.59375 929.05859375 C150.15234375 927.80859375 150.15234375 927.80859375 152.15234375 927.80859375 C152.42046875 927.16921875 152.68859375 926.52984375 152.96484375 925.87109375 C154.15234375 923.80859375 154.15234375 923.80859375 157.15234375 922.80859375 C157.8677402 921.50075961 158.52888448 920.16266936 159.15234375 918.80859375 C160.11114409 917.52671938 161.11228332 916.27546445 162.15234375 915.05859375 C162.66796875 914.445 163.18359375 913.83140625 163.71484375 913.19921875 C165.15234375 911.80859375 165.15234375 911.80859375 167.15234375 911.80859375 C167.51199219 910.75285156 167.51199219 910.75285156 167.87890625 909.67578125 C169.3627499 906.3348572 171.27696573 903.81198424 173.52734375 900.93359375 C176.78539497 896.69638902 179.62349467 892.51748515 182.15234375 887.80859375 C183.1067036 886.24366362 184.06544322 884.68140026 185.02734375 883.12109375 C190.2689293 874.39835416 194.58212863 865.32916739 198.15234375 855.80859375 C198.40628906 855.14472656 198.66023437 854.48085938 198.921875 853.796875 C203.20002006 842.60337216 207.04999309 831.38491046 210.15234375 819.80859375 C210.35569336 819.06577148 210.55904297 818.32294922 210.76855469 817.55761719 C213.96774155 805.70415573 216.07880851 793.74847528 217.90234375 781.62109375 C218.00925537 780.91017578 218.11616699 780.19925781 218.22631836 779.46679688 C220.06583051 767.12536858 221.31067449 755.09993329 221.390625 742.61328125 C221.4002829 741.35915436 221.4099408 740.10502747 221.41989136 738.81289673 C221.44465258 734.76976127 221.45780248 730.72678916 221.46484375 726.68359375 C221.4664362 725.99727875 221.46802864 725.31096375 221.46966934 724.60385132 C221.50871763 704.81407987 221.04505548 685.46132181 217.67382812 665.90820312 C217.15658408 662.83379749 216.72537928 659.75949943 216.32421875 656.66796875 C215.26730265 648.52881734 214.06517728 640.58500215 211.890625 632.65625 C211.05029932 629.4149938 210.44724279 626.16383593 209.83984375 622.87109375 C207.91388894 613.00817781 205.02123724 603.43150351 202.15234375 593.80859375 C201.76171875 592.48046875 201.37109375 591.15234375 200.98046875 589.82421875 C199.32622692 584.30159604 197.48181356 579.07522114 195.15234375 573.80859375 C194.70200396 572.47954217 194.26573101 571.14568166 193.83984375 569.80859375 C190.23027476 558.75545762 185.46748175 548.08801543 180.765625 537.46484375 C179.71956343 535.09410857 178.69106673 532.71551444 177.68359375 530.328125 C176.01319498 526.48876457 174.21331858 522.73941527 172.33984375 518.99609375 C171.81644409 517.94832764 171.81644409 517.94832764 171.2824707 516.87939453 C168.8504201 512.06423467 166.2249913 507.4191402 163.3828125 502.83203125 C161.80500969 500.23742218 160.5100459 497.52399806 159.15234375 494.80859375 C157.21801293 491.43491239 155.18682053 488.12261567 153.15234375 484.80859375 C152.78157715 484.20128418 152.41081055 483.59397461 152.02880859 482.96826172 C146.73341034 474.30948324 141.23844741 465.93962824 135.15234375 457.80859375 C133.69211554 455.7891292 132.23375866 453.76831013 130.77734375 451.74609375 C128.98323662 449.25507249 127.32226561 446.97851561 125.15234375 444.80859375 C125.15234375 443.81859375 125.15234375 442.82859375 125.15234375 441.80859375 C124.16234375 441.47859375 123.17234375 441.14859375 122.15234375 440.80859375 C120.32812482 438.55115966 118.63401113 436.30104816 116.96484375 433.93359375 C116.23454956 432.91628174 116.23454956 432.91628174 115.48950195 431.87841797 C114.50227919 430.50295789 113.51780096 429.12552365 112.53613281 427.74609375 C110.66280062 425.12316427 108.75006844 422.52972924 106.83984375 419.93359375 C97.15234375 406.57083602 97.15234375 406.57083602 97.15234375 403.80859375 C96.49234375 403.80859375 95.83234375 403.80859375 95.15234375 403.80859375 C93.92578125 402.078125 93.92578125 402.078125 92.52734375 399.62109375 C90.10149706 395.43962207 87.62918473 391.29742214 85.08984375 387.18359375 C84.07470703 385.53617187 84.07470703 385.53617187 83.0390625 383.85546875 C81.50318074 381.37516281 79.95710255 378.90207234 78.40234375 376.43359375 C74.22358728 369.7475834 70.64242747 362.87142106 67.15234375 355.80859375 C66.17030798 353.83985079 65.18606824 351.87222075 64.20141602 349.90478516 C63.15667573 347.81724964 62.11348425 345.72894468 61.0703125 343.640625 C59.95328563 341.40602503 58.83131359 339.17432123 57.703125 336.9453125 C53.05472347 327.75115553 48.89366385 318.40589314 45.15234375 308.80859375 C44.58629448 307.38267074 44.01985385 305.95690305 43.453125 304.53125 C42.83172349 302.95715271 42.21063227 301.38293289 41.58984375 299.80859375 C41.15019287 298.70535767 41.15019287 298.70535767 40.70166016 297.57983398 C38.87875329 292.92900532 37.3401591 288.25485366 35.94067383 283.46044922 C35.10062772 280.63462673 34.20061456 277.83352194 33.28515625 275.03125 C28.33641158 259.86578159 23.49364114 244.68395711 20.609375 228.96875 C20.11804607 226.6464859 19.4407294 224.4431455 18.71484375 222.18359375 C17.13727028 217.14170066 16.20377389 212.02375798 15.27758789 206.83349609 C14.37852769 201.85093604 13.22122659 196.98336718 11.93969727 192.08422852 C11.09784037 188.5818428 10.44078442 185.07671197 9.8046875 181.53125 C8.32392742 173.46099302 6.57191591 165.46609413 4.7277832 157.47192383 C4.21450775 155.24463573 3.7075226 153.01598075 3.20117188 150.78710938 C1.3165875 142.54179753 -0.71218299 134.35238924 -2.93237305 126.19091797 C-3.8949396 122.63386353 -4.81115565 119.06653657 -5.72265625 115.49609375 C-9.51658716 101.29849292 -14.57214242 87.51280209 -19.84765625 73.80859375 C-20.33492187 72.49375 -20.33492187 72.49375 -20.83203125 71.15234375 C-23.63395015 63.77887297 -27.26082619 56.81014776 -30.84033203 49.79199219 C-31.89180392 47.72166799 -32.92948001 45.64482803 -33.96484375 43.56640625 C-41.34841098 28.78848762 -50.2315933 14.32127434 -60.7109375 1.53515625 C-64.81961146 -3.54637615 -64.81961146 -3.54637615 -64.97265625 -7.06640625 C-63.54785785 -9.75769211 -62.6642537 -10.07592211 -59.84765625 -11.19140625 C-38.46599468 -15.35466247 -17.337361 -14.16849361 0 0 Z M27.15234375 470.80859375 C28.15234375 472.80859375 28.15234375 472.80859375 28.15234375 472.80859375 Z M28.15234375 472.80859375 C28.15234375 473.46859375 28.15234375 474.12859375 28.15234375 474.80859375 C28.81234375 474.47859375 29.47234375 474.14859375 30.15234375 473.80859375 C29.49234375 473.47859375 28.83234375 473.14859375 28.15234375 472.80859375 Z M31.15234375 476.80859375 C32.15234375 478.80859375 32.15234375 478.80859375 32.15234375 478.80859375 Z M124.15234375 945.80859375 C125.15234375 947.80859375 125.15234375 947.80859375 125.15234375 947.80859375 Z " fill="#000000" transform="translate(582.84765625,44.19140625)"/>
<path d="M0 0 C5.07808127 0.47485874 8.27640836 2.9985261 12.25 5.9375 C12.88679687 6.39318359 13.52359375 6.84886719 14.1796875 7.31835938 C18.85925752 10.71851504 18.85925752 10.71851504 20 13 C21.65997209 14.01107391 23.32830314 15.00843186 25 16 C27.25136916 17.63248629 29.43689868 19.34648904 31.625 21.0625 C34.70001012 23.46225452 37.75176645 25.83451096 41 28 C41 28.66 41 29.32 41 30 C41.639375 30.103125 42.27875 30.20625 42.9375 30.3125 C43.618125 30.539375 44.29875 30.76625 45 31 C45.495 32.485 45.495 32.485 46 34 C46.69867187 34.268125 47.39734375 34.53625 48.1171875 34.8125 C52.13179272 36.46621272 54.91000485 39.1301938 58.125 42 C59.35554696 43.08472331 60.58727478 44.16810884 61.8203125 45.25 C62.35930176 45.72953125 62.89829102 46.2090625 63.45361328 46.703125 C65.18056144 48.19956124 65.18056144 48.19956124 68 50 C68 50.66 68 51.32 68 52 C68.58265625 52.268125 69.1653125 52.53625 69.765625 52.8125 C72.02786601 54.01480991 73.80576318 55.33825913 75.75 57 C76.36359375 57.515625 76.9771875 58.03125 77.609375 58.5625 C79 60 79 60 79 62 C80.0828125 62.3403125 80.0828125 62.3403125 81.1875 62.6875 C84.52901533 64.24687382 86.53233751 66.35333608 89 69 C95.09909174 75.25991003 95.09909174 75.25991003 101.625 81.0625 C105.53139011 84.32835039 108.73424142 88.10824151 112 92 C118.08362715 99.36676625 118.08362715 99.36676625 125.25 105.625 C127 107 127 107 128 110 C129.12411852 111.15818271 130.25511639 112.31040021 131.41796875 113.4296875 C146.158646 128.06117455 146.158646 128.06117455 149.0078125 135.703125 C149.49894531 136.84007812 149.49894531 136.84007812 150 138 C150.99 138.33 151.98 138.66 153 139 C154.39132239 140.96010198 155.71423041 142.96909519 157 145 C157.81615726 146.13276143 158.6433883 147.25761132 159.48046875 148.375 C164.2333179 154.73865837 168.87278069 161.14135418 173.1875 167.8125 C173.57381592 168.40482422 173.96013184 168.99714844 174.3581543 169.60742188 C177 173.75063439 177 173.75063439 177 176 C177.66 176 178.32 176 179 176 C181.11024705 179.68405159 183.21209027 183.37283232 185.3125 187.0625 C185.90740234 188.10083984 186.50230469 189.13917969 187.11523438 190.20898438 C190.05816024 195.38787626 192.78058146 200.47307137 195 206 C195.63044612 207.29924638 196.27349221 208.59258153 196.9375 209.875 C200.80594216 217.56809063 203.89505976 225.36477473 206.71606445 233.4934082 C208.24964383 237.90600669 209.85499956 242.27570643 211.5625 246.625 C220.56930645 269.85911855 227.41957048 294.48890323 232.32421875 318.921875 C232.80144997 321.09562183 233.36648922 323.25096909 233.9921875 325.38671875 C235.06941049 329.24885544 235.78843858 333.11252368 236.4375 337.0625 C237.33737188 342.36646421 238.32146046 347.62402018 239.5 352.875 C243.64368313 371.92739874 245.81617314 391.45328431 248.42431641 410.76464844 C248.90755143 414.33742372 249.41154586 417.90699642 249.91796875 421.4765625 C252.56227612 440.88270568 253.18821838 460.44874259 254 480 C252.68 480.33 251.36 480.66 250 481 C247.90366505 477.02112063 246.32218573 473.18928848 245.0625 468.875 C243.75465885 464.50392635 242.42606499 460.1466191 241 455.8125 C240.566875 454.49185547 240.566875 454.49185547 240.125 453.14453125 C238.85789637 449.6028006 237.46905394 446.12193546 236.06152344 442.6340332 C235.05207017 440.12920541 234.05852672 437.61873925 233.0703125 435.10546875 C229.3136059 425.59019539 225.38386929 416.24506532 221 407 C220.16366088 405.14718718 219.33025242 403.29304827 218.5 401.4375 C214.81705926 393.32794779 210.86412076 385.34981224 206.46875 377.6015625 C205.28301149 375.50129162 204.12137788 373.39186622 202.96875 371.2734375 C198.47452313 363.06990752 193.65279079 355.47296379 188 348 C187.19682084 346.82025613 186.40270507 345.63419009 185.625 344.4375 C184.08375793 341.95301384 184.08375793 341.95301384 182 340 C182 339.01 182 338.02 182 337 C181.01 336.67 180.02 336.34 179 336 C177.45703125 334.25 177.45703125 334.25 175.8125 332 C172.60304354 327.7138669 169.14781917 323.768147 165.50390625 319.84765625 C164 318 164 318 164 316 C163.40703125 315.74605469 162.8140625 315.49210937 162.203125 315.23046875 C159.75602301 313.86373626 158.50652046 312.48257018 156.75 310.3125 C153.74709067 306.75540569 150.55989411 303.72123926 146.9921875 300.73828125 C145.09365946 299.08172247 143.30969206 297.34700567 141.53955078 295.55493164 C139.62245442 293.61868255 137.68582901 291.70267507 135.75 289.78515625 C134.1666059 288.21099862 132.58327415 286.63677827 131 285.0625 C130.2059375 284.27681641 129.411875 283.49113281 128.59375 282.68164062 C117.69245582 271.82576851 107.01345009 259.30290718 101 245 C100.64550781 244.15824219 100.29101562 243.31648437 99.92578125 242.44921875 C98.11614751 238.01595246 96.43592318 233.53458115 94.77734375 229.04296875 C93.91632609 226.78009319 92.98832283 224.54960496 92.0625 222.3125 C89.08753775 214.89763196 86.9399701 207.2294838 84.70703125 199.56640625 C84.48587646 198.8091626 84.26472168 198.05191895 84.03686523 197.27172852 C83.60515592 195.78996709 83.17615247 194.30741384 82.75024414 192.82397461 C81.92982857 189.99661954 81.09258086 187.22615172 79.9765625 184.5 C78.92084001 181.79735043 78.26625365 179.07014691 77.58935547 176.25292969 C76.46998278 171.97390267 74.99050798 167.80897242 73.5625 163.625 C71.48694621 157.51885466 69.48936583 151.41542344 67.72631836 145.21069336 C66.76716156 142.29131024 65.39550582 139.68672234 63.96484375 136.9765625 C62.62828682 134.2385147 61.75455856 131.41319379 60.828125 128.515625 C57.77534123 119.24207431 53.87901166 110.34341255 49.87451172 101.45239258 C48.13415033 97.58212895 46.45308939 93.71535673 44.9375 89.75 C42.88150008 84.4539645 40.27423124 79.44310098 37.68359375 74.39453125 C35.9884807 70.97677431 34.49131515 67.51063649 33 64 C29.0906103 55.76714194 24.77869358 47.7279962 20.51538086 39.67480469 C19.7040642 38.14152273 18.894949 36.60707322 18.08837891 35.07128906 C17.13139326 33.25005393 16.1659716 31.43325684 15.19921875 29.6171875 C14 27 14 27 14 24 C13.34 24 12.68 24 12 24 C11.63648438 23.32195312 11.27296875 22.64390625 10.8984375 21.9453125 C7.800585 16.21031378 4.5887324 10.60169016 1.1015625 5.09375 C0 3 0 3 0 0 Z " fill="#000000" transform="translate(731,62)"/>
<path d="M0 0 C26.96617145 -0.81578334 53.74090168 2.81219353 75 21 C75 21.66 75 22.32 75 23 C75.58910156 23.25394531 76.17820312 23.50789063 76.78515625 23.76953125 C80.71277287 25.95154048 83.19689191 29.55491023 86 33 C86.825 34.010625 87.65 35.02125 88.5 36.0625 C92.52089493 41.8483422 95.17346375 48.57108474 98 55 C98.40605469 55.91523437 98.81210937 56.83046875 99.23046875 57.7734375 C101.43437276 62.99187689 102.92900321 68.22992708 104.19140625 73.75 C104.83938177 76.35442334 105.57784796 78.86251166 106.38354492 81.41894531 C114.3782718 108.15181778 113.59853352 135.36997409 113.28503418 162.97076416 C113.19265682 171.61738129 113.14828657 180.26449681 113.09725761 188.9114399 C113.08454119 191.01616518 113.07095224 193.12088538 113.05647469 195.22559929 C112.96630002 208.57116443 113.01177509 221.89798373 113.41796875 235.23828125 C113.45766785 236.55197693 113.49736694 237.86567261 113.53826904 239.21917725 C113.89389132 249.39243738 114.63558958 259.51957313 115.59765625 269.65234375 C116.07409095 275.1066649 116.0893897 280.52868793 116 286 C114.68 286 113.36 286 112 286 C97.98928749 264.20555832 94.17519604 233.02114869 89 208 C88.16747079 203.97899955 87.33397541 199.95820073 86.5 195.9375 C86.28303467 194.88796143 86.06606934 193.83842285 85.8425293 192.75708008 C84.73858337 187.44263831 83.58775484 182.1508005 82.3125 176.875 C81.02654692 171.45100796 80.26131167 166.01805376 79.5234375 160.49609375 C79.02390352 157.15965413 78.36677964 153.91515162 77.625 150.625 C75.92114116 143.00520488 74.67891316 135.32225258 73.44580078 127.61376953 C72.71830742 123.11069639 71.95508794 118.64794387 70.92578125 114.203125 C70.07030983 110.49884667 69.61447588 106.85044576 69.25 103.0625 C66.22874034 79.55332328 54.15786294 57.99258648 38 41 C36.82579484 39.67330066 35.65870737 38.34025599 34.5 37 C33.33352407 35.6664998 32.16684508 34.3331772 31 33 C30.28972656 32.18402344 29.57945312 31.36804688 28.84765625 30.52734375 C24.19164281 25.25052852 19.38565282 20.51864432 14 16 C12.32688544 14.5700099 10.66023509 13.13242335 9 11.6875 C8.236875 11.03136719 7.47375 10.37523437 6.6875 9.69921875 C5 8 5 8 5 6 C3.68 5.67 2.36 5.34 1 5 C0.67 3.35 0.34 1.7 0 0 Z " fill="#000000" transform="translate(578,26)"/>
<path d="M0 0 C1.8125 0.125 1.8125 0.125 4 1 C7 6.03571429 7 6.03571429 7 9 C6.34 9 5.68 9 5 9 C4.67 8.34 4.34 7.68 4 7 C3.01 6.67 2.02 6.34 1 6 C0.67 6.66 0.34 7.32 0 8 C0 5.36 0 2.72 0 0 Z " fill="#191919" transform="translate(154,809)"/>
<path d="M0 0 C0.99 0 1.98 0 3 0 C3.6875 1.8125 3.6875 1.8125 4 4 C2.8125 5.8125 2.8125 5.8125 1 7 C-1.1875 6.6875 -1.1875 6.6875 -3 6 C-1.125 1.125 -1.125 1.125 0 0 Z " fill="#0C0C0C" transform="translate(586,764)"/>
<path d="M0 0 C0.66 0.33 1.32 0.66 2 1 C2.59355614 3.64860427 2.74209269 6.29197322 3 9 C1.0625 9.5625 1.0625 9.5625 -1 10 C-2 9 -2 9 -2.1875 6.6875 C-1.9945637 3.9220797 -1.39825155 2.35954949 0 0 Z " fill="#121212" transform="translate(982,533)"/>
</svg>
